# xmcd CD database file
#
# Track frame offsets:
#	150
#	13662
#	28452
#	43895
#	55187
#	72342
#	96347
#	112605
#	129330
#	141590
#	160607
#	173625
#
# Disc length: 2552 seconds
#
# Revision: 0
# Processed by: cddbd v1.5.1PL0 Copyright (c) Steve Scherf et al.
# Submitted via: CDex 1.51
#
DISCID=a309f60c
DTITLE=Arja Koriseva - Saa joulu aikaan sen
DYEAR=1991
DGENRE=Joululaulut
TTITLE0=Kolme yötä jouluun
TTITLE1=Saa joulu aikaan sen
TTITLE2=Tule joulu kultainen
TTITLE3=Santtu Saunatonttu
TTITLE4=Marian poika
TTITLE5=Tonttu
TTITLE6=Joulu metsämaille saapui
TTITLE7=Joululaulu
TTITLE8=Tonttu Torvinen
TTITLE9=Sydämeeni joulun teen
TTITLE10=Pikkutontun joululipas
TTITLE11=Joulun rauhaa
EXTD=YEAR: 1991
EXTT0=
EXTT1=
EXTT2=
EXTT3=
EXTT4=
EXTT5=
EXTT6=
EXTT7=
EXTT8=
EXTT9=
EXTT10=
EXTT11=
PLAYORDER=
